<svg xmlns="http://www.w3.org/2000/svg" width="200" height="200">

  <!-- Rosette 1: upper-left ~(52,52) -->
  <g fill="#1a0010" opacity="0.70">
    <ellipse cx="52" cy="32" rx="9" ry="6" transform="rotate(-15 52 32)"/>
    <ellipse cx="70" cy="40" rx="8" ry="5" transform="rotate(35 70 40)"/>
    <ellipse cx="73" cy="60" rx="8" ry="5" transform="rotate(-35 73 60)"/>
    <ellipse cx="58" cy="73" rx="9" ry="6" transform="rotate(15 58 73)"/>
    <ellipse cx="36" cy="68" rx="8" ry="5" transform="rotate(40 36 68)"/>
    <ellipse cx="30" cy="46" rx="8" ry="5" transform="rotate(-40 30 46)"/>
  </g>

  <!-- Rosette 2: upper-right ~(155,38) -->
  <g fill="#1a0010" opacity="0.65">
    <ellipse cx="155" cy="18" rx="8" ry="5" transform="rotate(-10 155 18)"/>
    <ellipse cx="171" cy="28" rx="7" ry="4.5" transform="rotate(30 171 28)"/>
    <ellipse cx="172" cy="46" rx="7" ry="4.5" transform="rotate(-30 172 46)"/>
    <ellipse cx="158" cy="58" rx="8" ry="5" transform="rotate(10 158 58)"/>
    <ellipse cx="140" cy="50" rx="7" ry="4.5" transform="rotate(35 140 50)"/>
    <ellipse cx="138" cy="30" rx="7" ry="4.5" transform="rotate(-35 138 30)"/>
  </g>

  <!-- Rosette 3: center ~(100,110) -->
  <g fill="#1a0010" opacity="0.72">
    <ellipse cx="100" cy="88" rx="9" ry="6" transform="rotate(-20 100 88)"/>
    <ellipse cx="120" cy="97" rx="8" ry="5" transform="rotate(40 120 97)"/>
    <ellipse cx="122" cy="118" rx="8" ry="5" transform="rotate(-40 122 118)"/>
    <ellipse cx="105" cy="132" rx="9" ry="6" transform="rotate(20 105 132)"/>
    <ellipse cx="82" cy="124" rx="8" ry="5" transform="rotate(40 82 124)"/>
    <ellipse cx="78" cy="101" rx="8" ry="5" transform="rotate(-40 78 101)"/>
  </g>

  <!-- Rosette 4: bottom-right ~(168,158) — partial, tiles with adjacent -->
  <g fill="#1a0010" opacity="0.68">
    <ellipse cx="168" cy="138" rx="8" ry="5" transform="rotate(-15 168 138)"/>
    <ellipse cx="185" cy="148" rx="7" ry="4" transform="rotate(30 185 148)"/>
    <ellipse cx="186" cy="166" rx="7" ry="4" transform="rotate(-30 186 166)"/>
    <ellipse cx="170" cy="178" rx="8" ry="5" transform="rotate(15 170 178)"/>
    <ellipse cx="152" cy="170" rx="7" ry="4" transform="rotate(35 152 170)"/>
    <ellipse cx="150" cy="150" rx="7" ry="4" transform="rotate(-35 150 150)"/>
  </g>

  <!-- Rosette 5: bottom-left ~(22,170) — partial, tiles with adjacent -->
  <g fill="#1a0010" opacity="0.66">
    <ellipse cx="22" cy="152" rx="7" ry="4.5" transform="rotate(-20 22 152)"/>
    <ellipse cx="37" cy="160" rx="6.5" ry="4" transform="rotate(30 37 160)"/>
    <ellipse cx="38" cy="176" rx="6.5" ry="4" transform="rotate(-30 38 176)"/>
    <ellipse cx="24" cy="186" rx="7" ry="4.5" transform="rotate(20 24 186)"/>
    <ellipse cx="8" cy="180" rx="6.5" ry="4" transform="rotate(35 8 180)"/>
    <ellipse cx="6" cy="163" rx="6.5" ry="4" transform="rotate(-35 6 163)"/>
  </g>

  <!-- Small solid spots for variety -->
  <ellipse cx="110" cy="55" rx="7" ry="5" transform="rotate(25 110 55)" fill="#1a0010" opacity="0.60"/>
  <ellipse cx="38" cy="106" rx="6" ry="4" transform="rotate(-20 38 106)" fill="#1a0010" opacity="0.58"/>
  <ellipse cx="172" cy="95" rx="6" ry="4" transform="rotate(15 172 95)" fill="#1a0010" opacity="0.58"/>
  <ellipse cx="70" cy="170" rx="7" ry="4.5" transform="rotate(-25 70 170)" fill="#1a0010" opacity="0.60"/>

</svg>
